<?xml version="1.0" encoding="UTF-8"?>
<svg id="Capa_2" data-name="Capa 2" xmlns="http://www.w3.org/2000/svg" viewBox="0 0 32 30.9">
  <defs>
    <style>
      .cls-1 {
        fill: #f24b04;
        stroke-width: 0px;
      }
    </style>
  </defs>
  <g id="Capa_1-2" data-name="Capa 1">
    <path class="cls-1" d="M32,6.62c0-2.44-1.98-4.41-4.41-4.41h-11.59c-.3,0-.55-.25-.55-.55,0-.91-.74-1.66-1.66-1.66s-1.66.74-1.66,1.66c0,2.13,1.73,3.86,3.86,3.86h11.59c.61,0,1.1.49,1.1,1.1s-.49,1.1-1.1,1.1h-15.88C5.3,7.72.05,12.88,0,19.22c-.05,6.4,5.1,11.62,11.5,11.67.03,0,.06,0,.09,0h7.72c.91,0,1.66-.74,1.66-1.66s-.74-1.66-1.66-1.66h-3.86v-2.21h6.07c.91,0,1.66-.74,1.66-1.66s-.74-1.66-1.66-1.66h-7.72c-.61,0-1.1-.49-1.1-1.1s.49-1.1,1.1-1.1h5.52c5.36,0,9.86-4.06,10.42-9.39,1.4-.78,2.26-2.25,2.26-3.85ZM11.71,11.03h.43v5.84c-.68.28-1.28.72-1.74,1.28l-6.07-2.76c1.49-2.69,4.31-4.36,7.39-4.36ZM3.31,19.25c0-.22.02-.44.03-.66l6.05,2.75c.02.2.05.4.09.59l-4.06,2.9c-1.38-1.53-2.13-3.52-2.11-5.58ZM11.59,27.59c-1.15,0-2.29-.24-3.34-.7l3.13-2.23c.24.16.5.29.77.4v2.53h-.55ZM19.31,16.55h-3.86v-5.52h10.84c-.77,3.23-3.66,5.51-6.98,5.52Z"/>
  </g>
</svg>