<?xml version="1.0" encoding="UTF-8"?>
<svg id="Capa_2" data-name="Capa 2" xmlns="http://www.w3.org/2000/svg" viewBox="0 0 966 461.64">
  <defs>
    <style>
      .cls-1 {
        fill: #f24b04;
        stroke-width: 0px;
      }
    </style>
  </defs>
  <g id="Capa_1-2" data-name="Capa 1">
    <g>
      <g>
        <path class="cls-1" d="M644.79,53.3v-5.67h-57.87l-32.62,70.07h-16.45V47.63h-51.06v66.19c-.95-7.71-2.55-14.7-4.82-21.09-3.97-11.16-9.64-20.38-17.02-27.66-7.38-7.28-16.36-12.72-26.95-16.31-10.59-3.59-22.5-5.39-35.74-5.39-17.4,0-32.53,3.26-45.39,9.64-12.86,6.43-22.79,16.17-29.79,29.22-2.74,5.06-4.92,10.69-6.52,16.88-.57-2.22-1.28-4.35-1.99-6.38-3.97-11.16-9.64-20.38-17.02-27.66-7.38-7.28-16.36-12.72-26.95-16.31-10.59-3.59-22.5-5.39-35.74-5.39-17.4,0-32.53,3.26-45.39,9.64-12.86,6.43-22.79,16.17-29.79,29.22-2.17,4.07-4.02,8.51-5.48,13.29-1.99-10.26-5.39-18.91-10.12-25.91-6.05-8.98-14.33-15.6-24.82-19.86-10.5-4.25-23.21-6.38-38.15-6.38-17.59,0-32.76,3.26-45.53,9.64-12.77,6.43-22.55,16.17-29.36,29.22C3.4,95.29,0,111.93,0,132.16c0,15.18,1.84,28.37,5.53,39.57,3.69,11.25,9.03,20.61,16.03,28.08,7,7.47,15.7,13.05,26.1,16.74,10.4,3.69,22.22,5.53,35.46,5.53,15.32,0,28.41-2.03,39.29-6.1,10.87-4.07,19.53-10.5,25.96-19.43,4.82-6.67,8.37-14.8,10.59-24.54,3.78,11.11,9.27,20.38,16.5,27.8,7.28,7.47,16.26,13.05,26.95,16.74,10.69,3.69,22.84,5.53,36.45,5.53,18.34,0,33.85-3.31,46.52-9.93,12.67-6.62,22.36-16.59,29.08-29.93,2.51-4.96,4.54-10.4,6.1-16.26.47,1.99,1.09,3.88,1.7,5.77,3.78,11.25,9.31,20.61,16.59,28.08,7.28,7.47,16.26,13.05,26.95,16.74,10.69,3.69,22.84,5.53,36.45,5.53,18.34,0,33.85-3.31,46.52-9.93,12.67-6.62,22.36-16.59,29.08-29.93,4.49-8.94,7.47-19.34,8.94-31.3v66.9h51.06v-59.57h18.16l23.83,47.7c9.08-15.27,20.09-28.98,32.81-40.75l-21.75-31.49,53.9-80.42ZM112.62,152.31c-1.51,6.24-3.31,11.49-5.39,15.74s-5.06,7.47-8.94,9.5c-3.88,2.08-9.22,3.12-16.03,3.12-7.94,0-14.23-1.94-18.86-5.82-4.63-3.83-7.9-9.41-9.79-16.59-1.89-7.19-2.84-15.89-2.84-26.1,0-8.32.95-15.89,2.84-22.84,1.89-6.9,5.2-12.48,9.93-16.74,4.73-4.25,11.25-6.38,19.57-6.38,9.27,0,15.84,2.41,19.72,7.23,3.88,4.82,6.76,12.06,8.65,21.7l44.16-9.6c-1.65,8.04-2.46,16.93-2.46,26.62,0,10.45.9,20,2.74,28.56l-43.31-8.42ZM270.62,158.69c-2.08,7.28-5.72,12.77-10.92,16.45-5.2,3.69-12.34,5.53-21.42,5.53s-15.55-1.84-20.57-5.67c-5.01-3.78-8.56-9.27-10.64-16.45-2.08-7.19-3.12-15.98-3.12-26.38s1.04-19.01,3.12-25.81c2.08-6.81,5.67-11.87,10.78-15.18,5.11-3.26,12.1-4.96,20.99-4.96s16.12,1.7,21.13,4.96c5.01,3.31,8.56,8.37,10.64,15.03,2.08,6.76,3.12,15.37,3.12,25.96s-1.04,19.29-3.12,26.52ZM434.02,158.69c-2.08,7.28-5.72,12.77-10.92,16.45-5.2,3.69-12.34,5.53-21.42,5.53s-15.55-1.84-20.57-5.67c-5.01-3.78-8.56-9.27-10.64-16.45-2.08-7.19-3.12-15.98-3.12-26.38s1.04-19.01,3.12-25.81c2.08-6.81,5.67-11.87,10.78-15.18,5.11-3.26,12.1-4.96,20.99-4.96s16.12,1.7,21.13,4.96c5.01,3.31,8.56,8.37,10.64,15.03,2.08,6.76,3.12,15.37,3.12,25.96s-1.04,19.29-3.12,26.52Z"/>
        <path class="cls-1" d="M450.76,236.75h-44.82v16.55c-4.87-6.57-12.29-11.63-22.13-15.27-10.02-3.69-23.07-5.53-39.15-5.53-25.53,0-44.44,4.49-56.73,13.33-12.29,8.94-18.44,22.03-18.44,39.43,0,10.4,1.84,19.34,5.53,26.81,3.69,7.52,10.02,13.62,19.01,18.3,8.98,4.73,21.32,8.42,37.02,11.06,11.16,1.7,19.38,3.69,24.68,5.82,5.3,2.17,8.79,4.54,10.5,7.09,1.7,2.55,2.55,5.44,2.55,8.65,0,3.97-1.94,6.86-5.82,8.65-3.88,1.84-9.69,2.69-17.45,2.69-5.11,0-9.83-.57-14.18-1.84-4.35-1.23-8.04-3.45-11.06-6.67-3.03-3.21-5.2-7.66-6.52-13.33l-47.09,10.5c.14,1.42.28,2.88.52,4.26h-81.65v-29.22h78.86v-33.19h-78.86v-28.37h84.53v-39.71H6.81v170.2h51.06v-46.52h73.19v-39.43H57.87v-38.86h76.59v124.82h135.6v-29.31c.47,1.23.99,2.46,1.56,3.64,2.74,5.77,7.04,10.92,12.91,15.46,5.86,4.54,13.66,8.08,23.4,10.64s21.89,3.83,36.45,3.83c17.59,0,31.91-1.99,42.98-5.96,11.06-3.97,19.2-9.93,24.4-17.87,5.2-7.94,7.8-17.68,7.8-29.22,0-6.62-.8-12.77-2.41-18.58-1.61-5.77-4.77-11.06-9.5-15.89-4.73-4.82-11.73-9.22-20.99-13.19-9.27-3.97-21.56-7.47-36.88-10.5-9.27-1.89-16.07-3.78-20.42-5.67-4.35-1.84-7.14-3.97-8.37-6.24-1.23-2.27-1.84-4.68-1.84-7.38,0-4.68,1.89-7.94,5.67-9.79,3.78-1.8,9.46-2.69,17.02-2.69,5.67,0,9.98.71,12.91,2.13,2.93,1.42,5.01,3.55,6.24,6.24,1.23,2.74,2.13,6,2.69,9.79l42.27-7.28v3.03h44.82v124.82h51.06v-124.82h44.82v-45.39h-95.88Z"/>
      </g>
      <path class="cls-1" d="M841.38,194.29c-3.78-12.81-17.26-20.09-30.02-16.26-12.81,3.78-20.09,17.26-16.31,30.02,3.83,12.81,17.26,20.09,30.07,16.31,12.81-3.83,20.09-17.26,16.26-30.07ZM841.38,194.29c-3.78-12.81-17.26-20.09-30.02-16.26-12.81,3.78-20.09,17.26-16.31,30.02,3.83,12.81,17.26,20.09,30.07,16.31,12.81-3.83,20.09-17.26,16.26-30.07ZM841.38,194.29c-3.78-12.81-17.26-20.09-30.02-16.26-12.81,3.78-20.09,17.26-16.31,30.02,3.83,12.81,17.26,20.09,30.07,16.31,12.81-3.83,20.09-17.26,16.26-30.07ZM644.93,211.92c-1.8,1.89-3.55,3.88-5.25,5.91"/>
      <path class="cls-1" d="M841.38,194.29c-3.78-12.81-17.26-20.09-30.02-16.26-12.81,3.78-20.09,17.26-16.31,30.02,3.83,12.81,17.26,20.09,30.07,16.31,12.81-3.83,20.09-17.26,16.26-30.07ZM841.38,194.29c-3.78-12.81-17.26-20.09-30.02-16.26-12.81,3.78-20.09,17.26-16.31,30.02,3.83,12.81,17.26,20.09,30.07,16.31,12.81-3.83,20.09-17.26,16.26-30.07ZM841.38,194.29c-3.78-12.81-17.26-20.09-30.02-16.26-12.81,3.78-20.09,17.26-16.31,30.02,3.83,12.81,17.26,20.09,30.07,16.31,12.81-3.83,20.09-17.26,16.26-30.07ZM841.38,194.29c-3.78-12.81-17.26-20.09-30.02-16.26-12.81,3.78-20.09,17.26-16.31,30.02,3.83,12.81,17.26,20.09,30.07,16.31,12.81-3.83,20.09-17.26,16.26-30.07ZM841.38,194.29c-3.78-12.81-17.26-20.09-30.02-16.26-12.81,3.78-20.09,17.26-16.31,30.02,3.83,12.81,17.26,20.09,30.07,16.31,12.81-3.83,20.09-17.26,16.26-30.07ZM841.38,194.29c-3.78-12.81-17.26-20.09-30.02-16.26-12.81,3.78-20.09,17.26-16.31,30.02,3.83,12.81,17.26,20.09,30.07,16.31,12.81-3.83,20.09-17.26,16.26-30.07ZM841.38,194.29c-3.78-12.81-17.26-20.09-30.02-16.26-12.81,3.78-20.09,17.26-16.31,30.02,3.83,12.81,17.26,20.09,30.07,16.31,12.81-3.83,20.09-17.26,16.26-30.07ZM841.38,194.29c-3.78-12.81-17.26-20.09-30.02-16.26-12.81,3.78-20.09,17.26-16.31,30.02,3.83,12.81,17.26,20.09,30.07,16.31,12.81-3.83,20.09-17.26,16.26-30.07ZM841.38,194.29c-3.78-12.81-17.26-20.09-30.02-16.26-12.81,3.78-20.09,17.26-16.31,30.02,3.83,12.81,17.26,20.09,30.07,16.31,12.81-3.83,20.09-17.26,16.26-30.07ZM841.38,194.29c-3.78-12.81-17.26-20.09-30.02-16.26-12.81,3.78-20.09,17.26-16.31,30.02,3.83,12.81,17.26,20.09,30.07,16.31,12.81-3.83,20.09-17.26,16.26-30.07ZM841.38,194.29c-3.78-12.81-17.26-20.09-30.02-16.26-12.81,3.78-20.09,17.26-16.31,30.02,3.83,12.81,17.26,20.09,30.07,16.31,12.81-3.83,20.09-17.26,16.26-30.07ZM841.38,194.29c-3.78-12.81-17.26-20.09-30.02-16.26-12.81,3.78-20.09,17.26-16.31,30.02,3.83,12.81,17.26,20.09,30.07,16.31,12.81-3.83,20.09-17.26,16.26-30.07ZM841.38,194.29c-3.78-12.81-17.26-20.09-30.02-16.26-12.81,3.78-20.09,17.26-16.31,30.02,3.83,12.81,17.26,20.09,30.07,16.31,12.81-3.83,20.09-17.26,16.26-30.07Z"/>
      <path class="cls-1" d="M773.96,306.77l61.79-18.34c81.18-24.25,129.78-107.18,111.25-189.83,16.41-14.51,22.88-37.21,16.69-58.2-8.84-29.88-40.23-46.9-70.07-38.06l-162.17,48.18c-8.51,2.51-17.49-2.36-20.05-10.87-2.51-8.51-11.49-13.38-20-10.87-8.56,2.55-13.43,11.54-10.87,20.05,7.61,25.58,34.51,40.19,60.09,32.58l162.17-48.18c12.77-3.78,26.24,3.5,30.02,16.26,3.78,12.81-3.5,26.24-16.26,30.07l-223.91,66.52c-25.86,7.71-48.32,21.28-66.38,38.86-10.12,9.83-18.86,20.9-25.96,32.91-22.36,37.35-29.6,83.54-16.22,128.55,25.34,85.29,115.03,133.85,200.27,108.55l108.13-32.15c8.51-2.51,13.38-11.49,10.83-20-2.51-8.56-11.49-13.43-20-10.87l-61.79,18.34-9.17-30.87,92.67-27.52c8.51-2.55,13.38-11.54,10.87-20.05-2.55-8.51-11.54-13.38-20.05-10.87l-108.13,32.15c-12.77,3.78-26.24-3.5-30.02-16.31-3.78-12.77,3.5-26.24,16.26-30.02ZM644.93,211.92c15.27-16.17,34.7-28.41,56.88-34.99l15.41-4.59,32.81,110.35c-6.71,4.4-12.43,10.17-16.74,16.97l-122.41-16.97c3.4-24.4,13.62-46.71,28.79-64.87,1.7-2.03,3.45-4.02,5.25-5.91ZM610.51,315.13l113.99,15.84c.09,5.06.9,10.12,2.36,14.99.28,1.09.57,2.03.85,3.03l-50.45,64.82c-37.07-20-62.03-56.83-66.76-98.67ZM780.81,386.29l9.83,33.14-15.46,4.59c-21.61,6.43-44.49,7.04-66.43,1.8l39.05-50.16.05-.05c9.6,6.9,21.13,10.64,32.95,10.68ZM748.14,163.18l168.88-50.16c10.5,64.06-28.23,125.95-90.44,144.48l-46.33,13.76-32.1-108.08Z"/>
    </g>
  </g>
</svg>